<?xml version="1.0" standalone="no"?>
<!DOCTYPE svg PUBLIC "-//W3C//DTD SVG 20010904//EN"
 "http://www.w3.org/TR/2001/REC-SVG-20010904/DTD/svg10.dtd">
<svg version="1.0" xmlns="http://www.w3.org/2000/svg"
 width="213.000000pt" height="209.000000pt" viewBox="0 0 213.000000 209.000000"
 preserveAspectRatio="xMidYMid meet">

<g transform="translate(0.000000,209.000000) scale(0.100000,-0.100000)"
fill="#000000" stroke="none">
<path d="M1460 1543 c0 -35 14 -58 29 -49 15 9 13 37 -3 59 -19 24 -26 21 -26
-10z"/>
<path d="M1451 1412 c-45 -42 -51 -53 -51 -88 0 -22 7 -49 15 -60 14 -18 14
-17 9 13 -9 47 1 76 46 128 38 44 45 55 36 55 -2 0 -27 -22 -55 -48z"/>
<path d="M1478 1333 c-22 -25 -29 -55 -18 -73 8 -13 10 -13 10 1 0 9 9 26 20
39 21 24 27 50 12 50 -5 0 -16 -8 -24 -17z"/>
<path d="M1350 1237 c0 -29 18 -47 47 -47 18 0 23 -6 23 -24 0 -14 5 -28 10
-31 16 -10 12 -23 -11 -30 -28 -9 -47 -52 -29 -68 10 -9 11 -9 6 0 -14 24 13
53 49 53 61 0 87 -81 46 -143 -18 -27 -37 -24 -26 5 7 18 -10 42 -24 34 -16
-10 -13 -42 5 -61 16 -15 16 -18 1 -33 -9 -9 -18 -14 -19 -11 -2 2 -10 18 -18
34 -18 35 -68 46 -89 21 -14 -17 -8 -46 8 -46 6 0 8 7 5 15 -8 20 19 29 45 15
32 -17 37 -54 11 -90 -16 -23 -21 -41 -18 -70 3 -32 0 -40 -13 -40 -9 0 -33
-11 -53 -25 -29 -19 -41 -23 -60 -15 -46 17 -59 78 -14 67 12 -4 18 -1 15 6
-5 17 -35 21 -52 7 -23 -19 -18 -56 11 -79 15 -12 34 -21 42 -21 13 0 12 -3
-3 -20 -16 -18 -20 -19 -35 -5 -20 18 -74 21 -67 3 2 -7 15 -13 28 -13 37 0
36 -18 -2 -38 -59 -31 -129 -2 -129 53 0 33 23 54 50 47 11 -3 18 -1 14 4 -10
17 -53 9 -68 -13 -20 -29 -20 -58 0 -87 14 -20 15 -25 3 -32 -41 -25 -44 -28
-32 -40 14 -14 53 5 53 25 0 10 11 12 43 9 55 -6 95 13 162 78 77 74 123 81
161 24 16 -25 16 -29 0 -63 l-16 -37 21 25 c16 19 20 34 16 62 -4 32 -2 38 13
38 10 0 26 8 37 18 10 9 13 13 7 9 -7 -5 -30 -7 -50 -5 -29 2 -42 9 -53 29
-21 38 -7 73 59 144 63 68 73 90 68 151 -2 31 1 41 17 49 21 11 34 55 16 55
-6 0 -18 -11 -26 -24 -15 -23 -16 -23 -50 -7 -41 19 -58 72 -32 98 20 20 49
10 40 -13 -4 -12 -3 -15 5 -10 19 11 14 44 -8 56 -22 12 -55 0 -63 -22 -2 -8
-14 -1 -31 20 -33 38 -46 41 -46 9z"/>
<path d="M1441 791 c-7 -5 -10 -14 -6 -20 4 -7 1 -19 -6 -27 -18 -22 -2 -30
21 -9 11 10 20 29 20 42 0 25 -7 28 -29 14z"/>
<path d="M870 733 c0 -4 14 -21 30 -38 27 -28 29 -33 15 -45 -19 -16 -20 -54
-1 -69 14 -12 46 -5 46 10 0 4 -6 6 -14 3 -8 -3 -17 0 -21 6 -12 19 16 40 53
40 40 0 34 16 -8 22 -18 2 -25 9 -26 27 -1 14 -10 30 -20 38 -19 14 -54 18
-54 6z"/>
<path d="M771 674 c-19 -8 -41 -24 -50 -36 -8 -12 -23 -30 -33 -40 -37 -37 6
-17 49 23 43 40 47 41 99 37 30 -3 54 -3 54 -1 0 5 -67 33 -77 33 -4 -1 -23
-7 -42 -16z"/>
<path d="M1386 654 c-14 -10 -22 -11 -27 -3 -4 8 -11 5 -18 -9 -6 -12 -7 -23
-2 -26 14 -9 61 12 67 29 9 23 2 26 -20 9z"/>
<path d="M798 608 l-23 -23 24 -3 c15 -2 30 3 37 12 6 9 19 16 28 16 9 0 16 5
16 10 0 19 -60 10 -82 -12z"/>
<path d="M580 600 c30 -23 46 -25 53 -6 8 20 -2 26 -42 26 l-36 0 25 -20z"/>
</g>
</svg>
