<?xml version="1.0" standalone="no"?>
<!DOCTYPE svg PUBLIC "-//W3C//DTD SVG 20010904//EN"
 "http://www.w3.org/TR/2001/REC-SVG-20010904/DTD/svg10.dtd">
<svg version="1.0" xmlns="http://www.w3.org/2000/svg"
 width="580.000000pt" height="386.000000pt" viewBox="0 0 580.000000 386.000000"
 preserveAspectRatio="xMidYMid meet">

<g transform="translate(0.000000,386.000000) scale(0.100000,-0.100000)"
fill="#000000" stroke="none">
<path d="M3984 3333 c-19 -91 0 -163 49 -196 l25 -16 -9 37 c-13 57 -11 59 20
22 l28 -34 -7 55 c-8 56 -39 118 -78 152 -21 19 -21 19 -28 -20z"/>
<path d="M4092 3101 c-3 -40 -39 -86 -99 -128 -127 -90 -173 -160 -181 -279
-4 -62 -1 -80 21 -127 14 -30 43 -73 66 -95 l40 -39 -24 -23 c-14 -13 -27 -31
-31 -42 -3 -10 -9 -18 -13 -18 -4 0 -30 28 -57 62 -44 55 -116 118 -134 118
-14 0 -20 -63 -9 -104 14 -53 70 -106 112 -106 l31 0 -30 31 c-28 30 -27 29
29 -7 53 -36 57 -41 57 -78 0 -48 34 -122 62 -137 17 -9 20 -9 16 2 -46 121
-20 236 58 255 58 15 86 -68 32 -94 -23 -10 -23 -11 5 -11 34 -1 77 39 77 71
0 35 -36 87 -65 94 -15 4 -46 4 -71 1 -39 -4 -47 -1 -64 21 -27 34 -50 115
-50 178 0 93 33 159 120 245 94 91 112 124 107 187 -2 26 -4 36 -5 23z"/>
<path d="M4040 2743 c-74 -64 -100 -162 -64 -239 24 -49 29 -48 32 4 1 25 10
69 19 97 16 45 18 47 21 22 l3 -28 21 26 c22 28 39 155 21 155 -5 0 -29 -17
-53 -37z"/>
<path d="M4219 2158 c-19 -19 -45 -56 -59 -83 -14 -28 -26 -52 -27 -54 -2 -2
-12 7 -23 21 -30 39 -105 70 -168 69 -76 -1 -130 -32 -161 -94 -21 -43 -22
-53 -12 -87 13 -44 43 -70 81 -70 24 1 23 1 -7 15 -113 49 -15 215 112 189
101 -20 160 -99 158 -214 -1 -76 -19 -130 -69 -206 l-37 -56 -18 23 c-19 26
-31 69 -18 69 4 0 10 -6 12 -12 3 -7 6 3 6 22 1 38 -26 101 -46 108 -18 5 -43
-52 -43 -98 0 -53 24 -98 60 -114 l30 -12 -60 -59 -60 -59 0 43 c0 81 -59 158
-140 182 -75 23 -154 -31 -154 -106 0 -19 8 -43 19 -55 21 -23 67 -27 84 -6
10 12 9 14 -6 10 -11 -3 -26 3 -35 13 -33 38 20 93 77 79 44 -11 95 -67 115
-125 l18 -53 -54 -75 c-29 -41 -57 -91 -61 -111 -12 -61 -6 -130 15 -172 l19
-40 -56 0 c-65 0 -142 -32 -208 -86 -40 -33 -45 -34 -81 -24 -72 19 -134 74
-147 130 -7 31 27 80 55 80 25 0 43 -26 37 -52 -5 -18 -4 -19 7 -7 28 29 29
57 2 84 -38 38 -89 34 -132 -9 -29 -29 -34 -41 -34 -80 0 -100 75 -171 198
-188 21 -3 18 -8 -32 -57 l-54 -54 -16 32 c-32 60 -120 80 -185 40 -33 -20
-34 -21 -15 -39 22 -22 109 -48 121 -36 4 4 1 11 -7 16 -27 17 18 12 52 -6
l30 -16 -22 -23 c-12 -12 -51 -38 -88 -56 -59 -30 -75 -34 -146 -34 -70 0 -87
4 -128 27 -78 46 -109 145 -72 224 42 89 185 84 172 -5 -2 -17 -1 -28 4 -25 4
3 8 23 8 44 0 50 -35 80 -94 80 -75 0 -137 -58 -151 -142 l-7 -38 -29 27 c-34
33 -80 51 -129 52 -31 1 -39 7 -68 54 l-33 52 30 -33 31 -32 0 27 c0 74 -73
133 -163 133 l-57 0 20 -40 c11 -22 53 -67 95 -102 l74 -62 -36 -20 c-60 -35
-90 -115 -62 -169 43 -83 160 -72 158 16 0 27 -2 29 -9 12 -13 -35 -36 -48
-59 -35 -35 18 -44 46 -26 81 23 43 75 63 150 56 81 -6 112 -22 120 -61 10
-44 52 -113 77 -127 20 -11 18 -13 -31 -37 -29 -15 -71 -44 -94 -66 -37 -36
-39 -40 -21 -47 10 -4 41 -8 68 -8 42 -1 52 3 82 33 39 39 47 74 13 56 -20
-11 -20 -11 -4 14 10 14 18 26 20 26 1 0 22 -7 45 -15 24 -8 76 -15 119 -15
136 1 219 48 407 232 133 129 180 157 259 158 49 0 115 -28 115 -49 0 -15 -79
-79 -112 -90 -29 -10 -29 -10 -23 20 6 29 6 30 -13 20 -24 -13 -56 -56 -66
-88 -6 -19 -2 -23 29 -29 83 -15 176 47 192 128 l9 43 24 -39 c46 -76 36 -178
-26 -239 -33 -33 -65 -42 -96 -27 -22 11 -22 11 -3 -5 14 -12 32 -15 60 -11
51 6 109 65 125 127 15 53 7 142 -14 174 -22 33 -20 38 9 31 60 -15 167 31
199 85 17 28 22 104 8 113 -4 2 -6 -11 -4 -30 5 -44 -17 -78 -71 -106 -113
-58 -243 1 -278 126 -23 82 12 148 156 296 62 63 131 142 154 174 76 109 99
237 62 343 l-18 53 24 15 c24 16 32 8 11 -13 -16 -16 -5 -15 36 2 43 18 70 74
63 129 -8 59 -20 64 -58 25z"/>
<path d="M3890 1880 c-9 -6 -10 -10 -3 -10 6 0 15 5 18 10 8 12 4 12 -15 0z"/>
<path d="M3938 1252 c-14 -9 -36 -30 -48 -45 l-21 -27 30 6 c17 4 31 4 31 1 0
-20 -24 -62 -56 -96 l-36 -41 26 0 c40 0 82 26 111 67 20 30 25 50 25 95 0 65
-12 73 -62 40z"/>
<path d="M2139 946 c-80 -21 -136 -62 -194 -140 -57 -78 -107 -126 -131 -126
-8 0 -14 -5 -14 -11 0 -14 62 -3 102 17 15 8 58 46 95 84 91 96 152 125 255
124 64 0 86 -5 136 -30 55 -27 58 -28 45 -8 -33 51 -146 105 -217 103 -17 0
-52 -6 -77 -13z"/>
<path d="M2245 796 c-24 -9 -59 -36 -88 -68 l-48 -53 62 -3 c51 -2 67 1 95 20
l34 23 -28 5 c-24 5 -22 7 27 23 29 9 72 17 95 17 l41 0 -31 20 c-42 27 -110
34 -159 16z"/>
<path d="M1558 783 c-36 -6 -35 -15 5 -49 44 -37 105 -64 147 -63 l35 0 -30
25 -30 26 44 -6 c43 -7 44 -6 29 15 -32 49 -101 67 -200 52z"/>
<path d="M1768 673 c7 -3 16 -2 19 1 4 3 -2 6 -13 5 -11 0 -14 -3 -6 -6z"/>
</g>
</svg>
