<?xml version="1.0" standalone="no"?>
<!DOCTYPE svg PUBLIC "-//W3C//DTD SVG 20010904//EN"
 "http://www.w3.org/TR/2001/REC-SVG-20010904/DTD/svg10.dtd">
<svg version="1.0" xmlns="http://www.w3.org/2000/svg"
 width="207.000000pt" height="211.000000pt" viewBox="0 0 207.000000 211.000000"
 preserveAspectRatio="xMidYMid meet">

<g transform="translate(0.000000,211.000000) scale(0.100000,-0.100000)"
fill="#000000" stroke="none">
<path d="M173 1940 c-39 -24 -53 -48 -53 -95 0 -47 13 -71 50 -90 41 -21 65
-19 97 10 l28 25 -38 -19 c-44 -22 -66 -18 -98 15 -57 60 -5 154 85 154 101 0
108 -85 25 -285 -51 -125 -53 -133 -54 -225 0 -93 1 -97 47 -190 26 -52 50
-114 54 -136 12 -77 -13 -175 -76 -298 -84 -163 -95 -205 -85 -346 4 -63 8
-134 9 -157 0 -23 4 -39 8 -37 11 7 10 79 -2 167 -17 119 -2 189 75 342 64
129 77 168 90 257 8 61 -6 113 -62 226 -42 84 -46 99 -46 165 0 64 6 88 54
207 43 108 54 149 57 207 4 66 2 74 -21 97 -33 33 -97 35 -144 6z"/>
<path d="M418 1898 c-16 -25 -38 -85 -38 -102 0 -25 69 71 70 97 0 33 -13 35
-32 5z"/>
<path d="M151 1844 c-1 -12 7 -30 17 -41 9 -10 13 -13 9 -7 -5 7 -12 25 -17
41 -7 23 -8 24 -9 7z"/>
<path d="M387 1738 c-28 -37 -67 -112 -67 -128 0 -6 27 18 60 52 35 38 59 72
60 86 0 32 -25 27 -53 -10z"/>
<path d="M134 1694 c-4 -15 2 -56 15 -99 11 -40 21 -82 22 -92 2 -38 19 55 21
118 2 44 -2 71 -11 83 -20 24 -40 20 -47 -10z"/>
<path d="M114 1557 c-5 -15 31 -103 47 -112 13 -8 -11 99 -25 114 -14 13 -16
13 -22 -2z"/>
<path d="M354 1541 c-38 -23 -64 -76 -71 -144 -4 -41 2 -73 27 -150 38 -119
50 -124 15 -7 -40 132 -31 227 26 274 59 50 129 17 129 -61 0 -67 -80 -112
-101 -57 -5 15 -12 25 -15 22 -2 -3 0 -17 5 -32 9 -21 17 -26 45 -26 26 0 40
7 61 32 23 27 26 39 22 77 -9 80 -75 113 -143 72z"/>
<path d="M132 1308 c-7 -7 -11 -23 -11 -37 1 -21 2 -22 6 -6 19 78 83 19 140
-129 13 -34 22 -48 19 -31 -9 59 -48 146 -80 180 -35 37 -54 43 -74 23z"/>
<path d="M448 1303 c-20 -23 -48 -78 -48 -95 0 -7 20 8 45 32 44 43 58 80 32
80 -8 0 -21 -8 -29 -17z"/>
<path d="M480 1229 c-35 -14 -78 -57 -101 -101 -22 -44 -25 -72 -4 -42 8 12
42 35 77 51 75 36 96 57 82 81 -14 21 -24 23 -54 11z"/>
<path d="M129 1151 c-18 -14 -24 -29 -24 -59 0 -52 27 -83 69 -81 27 2 28 2 6
6 -14 3 -29 9 -35 14 -7 7 -3 8 10 4 12 -4 15 -3 9 2 -6 4 -16 17 -23 28 -11
19 -12 19 -5 -4 4 -16 3 -21 -5 -17 -18 11 -13 71 7 89 64 58 138 -52 118
-174 -4 -22 -18 -68 -31 -101 -35 -86 -25 -83 16 4 28 61 33 84 33 143 0 129
-74 203 -145 146z"/>
<path d="M641 1016 c-7 -8 -17 -45 -23 -83 -5 -37 -19 -86 -30 -108 -15 -31
-15 -36 -2 -20 27 33 76 143 81 185 6 41 -5 52 -26 26z"/>
<path d="M503 954 c-3 -9 2 -42 11 -75 9 -32 16 -67 16 -76 0 -33 -46 -117
-100 -183 l-52 -65 65 66 c77 80 109 150 109 245 0 60 -13 104 -33 104 -5 0
-12 -7 -16 -16z"/>
<path d="M75 831 c-8 -25 10 -141 28 -184 10 -24 11 -12 9 75 -2 68 -8 108
-17 117 -11 11 -14 10 -20 -8z"/>
<path d="M360 832 c-60 -32 -84 -107 -48 -149 14 -17 63 -16 78 1 10 13 7 13
-20 3 -28 -11 -33 -10 -46 7 -23 32 -17 65 20 102 38 38 83 45 110 18 34 -33
14 -87 -73 -201 l-53 -68 61 65 c64 67 101 130 101 169 0 29 -43 71 -72 71
-13 0 -39 -8 -58 -18z"/>
<path d="M595 754 c-14 -15 -25 -31 -25 -36 0 -6 -14 -23 -31 -39 -17 -16 -26
-29 -20 -29 13 0 121 107 121 120 0 18 -21 10 -45 -16z"/>
<path d="M130 723 c0 -35 3 -44 10 -33 13 20 13 80 0 80 -5 0 -10 -21 -10 -47z"/>
<path d="M332 740 c0 -14 2 -19 5 -12 2 6 2 18 0 25 -3 6 -5 1 -5 -13z"/>
<path d="M840 652 c96 -48 43 -156 -104 -211 -28 -10 -114 -33 -191 -50 -143
-32 -263 -80 -300 -121 -13 -15 -2 -11 38 13 64 39 140 64 312 102 210 47 305
108 305 195 0 47 -34 90 -72 90 -19 0 -18 -3 12 -18z"/>
<path d="M199 628 c-15 -27 -26 -168 -12 -153 19 20 54 117 51 142 -4 35 -24
40 -39 11z"/>
<path d="M737 633 c-4 -3 -4 -29 -1 -58 4 -32 2 -61 -5 -76 -10 -20 -8 -19 13
6 28 33 42 82 31 114 -6 21 -25 28 -38 14z"/>
<path d="M550 600 c-11 -11 -20 -28 -20 -37 1 -13 5 -10 16 10 12 21 22 27 50
27 40 0 84 -36 84 -69 0 -34 -51 -81 -110 -101 -40 -14 -48 -19 -28 -20 57 0
129 47 149 99 29 73 -85 147 -141 91z"/>
<path d="M851 573 c0 -12 -16 -39 -33 -59 -27 -30 -29 -35 -11 -25 27 14 56
66 50 89 -3 12 -5 11 -6 -5z"/>
<path d="M924 506 c-19 -19 -34 -41 -34 -50 0 -25 27 -73 45 -80 32 -12 82 -6
98 12 36 40 6 93 -51 91 -34 -2 -35 -2 -7 -6 41 -6 57 -22 53 -51 -4 -38 -51
-51 -87 -25 -36 28 -39 66 -6 99 24 24 32 26 81 22 120 -10 154 -119 56 -180
-48 -30 -119 -27 -217 8 -95 33 -222 38 -290 10 -22 -9 -29 -14 -15 -11 14 4
63 9 110 12 77 5 94 2 179 -26 102 -34 172 -39 224 -17 75 32 109 116 68 167
-28 36 -80 59 -131 59 -34 0 -48 -6 -76 -34z"/>
<path d="M1655 528 c-11 -6 -25 -19 -32 -27 -15 -19 -16 -70 -3 -91 6 -10 8
-3 3 23 -16 101 121 125 209 37 46 -46 51 -88 13 -125 -38 -38 -90 -37 -221 7
-78 26 -98 29 -140 22 l-49 -8 75 -7 c44 -3 104 -18 145 -34 97 -37 165 -33
208 15 24 27 28 39 24 67 -8 45 -47 96 -90 117 -40 18 -113 21 -142 4z"/>
<path d="M53 514 c-8 -21 21 -110 47 -149 l21 -30 -7 75 c-8 96 -42 153 -61
104z"/>
<path d="M1338 514 c28 -19 28 -54 0 -89 -21 -27 -21 -27 -1 -16 32 17 47 69
28 98 -9 12 -23 23 -32 23 -14 0 -13 -3 5 -16z"/>
<path d="M311 493 c-34 -24 -70 -86 -97 -166 -29 -87 -24 -102 6 -18 25 68 36
79 100 106 59 25 82 44 78 69 -4 27 -54 32 -87 9z"/>
<path d="M479 483 c-13 -15 -12 -15 8 -3 19 12 24 12 42 -4 22 -20 30 -9 9 12
-17 17 -43 15 -59 -5z"/>
<path d="M206 474 c-3 -9 -6 -30 -5 -47 l1 -32 13 30 c16 35 19 65 6 65 -5 0
-12 -7 -15 -16z"/>
<path d="M1777 465 c17 -7 39 -25 49 -40 15 -23 16 -32 6 -59 -10 -28 -10 -29
3 -12 29 38 14 86 -35 111 -16 8 -35 15 -42 15 -7 -1 1 -7 19 -15z"/>
<path d="M1174 377 c-69 -64 -92 -77 -159 -92 l-50 -12 55 -7 c127 -17 279 60
268 136 -2 16 -11 24 -29 26 -21 2 -40 -9 -85 -51z"/>
<path d="M1337 382 c-23 -21 -55 -49 -72 -61 l-30 -24 40 7 c74 14 158 77 140
106 -12 19 -35 10 -78 -28z"/>
<path d="M1415 335 c-81 -22 -162 -54 -139 -55 11 0 47 9 79 20 142 49 256 30
286 -48 21 -54 -45 -132 -110 -132 -73 0 -142 71 -121 124 18 48 110 43 110
-5 0 -12 3 -20 6 -16 13 13 -7 54 -32 66 -50 22 -104 -12 -104 -67 0 -88 116
-151 200 -107 38 20 70 74 70 120 0 47 -41 88 -104 104 -56 14 -78 13 -141 -4z"/>
<path d="M442 305 c-69 -15 -189 -71 -237 -110 -18 -15 11 -4 76 29 106 53
166 70 290 82 125 12 239 -45 239 -119 0 -47 -54 -97 -106 -97 -70 0 -133 45
-118 84 9 24 35 28 63 10 l26 -17 -19 21 c-11 12 -29 22 -41 22 -52 0 -62 -64
-16 -103 82 -69 215 -28 228 70 6 50 -22 87 -91 119 -42 20 -66 24 -141 23
-49 0 -118 -7 -153 -14z"/>
<path d="M840 293 c0 -7 79 -42 120 -53 25 -7 93 -12 152 -11 120 1 149 -6
174 -44 51 -78 -86 -127 -151 -55 -23 25 -12 51 26 61 17 5 19 7 6 8 -63 3
-80 -65 -24 -99 39 -24 113 -26 145 -4 33 23 30 83 -4 118 -30 30 -29 29 -184
31 -96 1 -127 5 -187 26 -40 14 -73 24 -73 22z"/>
<path d="M605 274 c17 -8 42 -28 57 -45 28 -30 43 -36 52 -20 18 28 -55 81
-111 81 l-28 0 30 -16z"/>
<path d="M1740 225 c61 -64 118 -105 147 -105 79 0 -47 109 -167 145 -22 6
-19 1 20 -40z"/>
<path d="M1440 245 c-19 -22 -8 -25 13 -3 9 10 13 18 8 18 -5 0 -14 -7 -21
-15z"/>
<path d="M1896 251 c-6 -9 82 -51 108 -51 48 0 61 30 21 48 -30 14 -121 16
-129 3z"/>
<path d="M359 231 c-54 -17 -162 -71 -156 -77 2 -2 27 6 56 17 32 12 91 22
147 26 70 4 94 10 94 20 0 14 -40 33 -68 32 -9 0 -42 -8 -73 -18z"/>
<path d="M935 179 c76 -72 91 -83 105 -74 28 17 -14 67 -89 104 -81 41 -85 34
-16 -30z"/>
</g>
</svg>
