<?xml version="1.0" standalone="no"?>
<!DOCTYPE svg PUBLIC "-//W3C//DTD SVG 20010904//EN"
 "http://www.w3.org/TR/2001/REC-SVG-20010904/DTD/svg10.dtd">
<svg version="1.0" xmlns="http://www.w3.org/2000/svg"
 width="180.000000pt" height="180.000000pt" viewBox="0 0 180.000000 180.000000"
 preserveAspectRatio="xMidYMid meet">

<g transform="translate(0.000000,180.000000) scale(0.100000,-0.100000)"
fill="#000000" stroke="none">
<path d="M1236 1331 c-10 -15 3 -53 17 -48 17 5 18 21 4 41 -10 13 -16 16 -21
7z"/>
<path d="M1219 1201 c-42 -41 -48 -69 -24 -111 13 -24 13 -23 8 15 -4 36 -1
46 31 84 20 23 36 45 36 47 0 11 -16 0 -51 -35z"/>
<path d="M1247 1142 c-10 -11 -17 -31 -15 -43 3 -23 3 -23 21 4 10 16 17 35
15 44 -2 13 -6 12 -21 -5z"/>
<path d="M1140 1062 c0 -10 5 -23 12 -30 7 -7 20 -12 30 -12 11 0 18 -7 18
-19 0 -34 19 -33 22 1 3 36 38 55 38 22 0 -14 3 -15 12 -6 8 8 8 15 -2 27 -17
20 -47 19 -59 -2 -8 -16 -12 -15 -31 10 -25 31 -40 35 -40 9z"/>
<path d="M1297 950 c-13 -19 -16 -19 -42 -6 -38 20 -85 2 -85 -32 0 -12 4 -11
16 6 19 28 48 28 75 1 17 -17 20 -29 16 -56 -9 -53 -50 -91 -44 -42 1 12 -4
24 -10 26 -16 6 -17 -39 -2 -54 12 -12 4 -33 -12 -33 -5 0 -9 6 -9 13 0 37
-72 63 -84 31 -9 -23 -7 -34 4 -34 6 0 10 7 10 15 0 21 23 19 43 -3 21 -23 21
-41 2 -66 -8 -11 -15 -37 -15 -58 0 -30 -4 -38 -19 -38 -10 0 -30 -9 -45 -21
-25 -20 -28 -20 -51 -5 -29 19 -34 56 -8 56 12 0 14 3 7 10 -18 18 -44 0 -44
-31 0 -22 8 -34 30 -47 22 -14 27 -21 18 -30 -8 -8 -17 -7 -33 4 -12 8 -30 12
-39 8 -23 -9 -10 -24 22 -24 l27 -1 -24 -19 c-13 -11 -38 -20 -56 -20 -59 0
-87 63 -43 94 12 9 17 16 10 16 -16 0 -52 -37 -52 -52 0 -7 6 -24 14 -38 12
-23 10 -27 -13 -47 l-26 -22 27 -1 c18 0 29 6 33 19 4 13 12 17 25 14 43 -11
89 8 149 62 37 33 71 55 85 55 34 0 59 -33 54 -70 -3 -21 -1 -27 6 -20 5 5 10
25 9 43 -1 28 4 36 26 45 l26 11 -27 -6 c-20 -4 -34 2 -53 21 -33 33 -27 55
32 119 51 55 77 109 68 145 -4 18 -1 28 15 39 20 14 28 43 11 43 -6 0 -16 -9
-24 -20z"/>
<path d="M1215 679 c-4 -6 -4 -13 -1 -16 3 -3 1 -12 -6 -20 -16 -20 -3 -27 16
-8 17 18 22 55 7 55 -6 0 -13 -5 -16 -11z"/>
<path d="M740 632 c0 -5 11 -19 26 -33 23 -21 23 -25 9 -35 -21 -16 -16 -58 8
-62 16 -3 17 -1 5 17 -11 18 -11 23 2 32 8 5 25 8 38 6 30 -6 28 9 -3 17 -14
4 -25 13 -25 20 0 8 -7 22 -16 30 -16 17 -44 22 -44 8z"/>
<path d="M613 554 c-43 -46 -35 -57 12 -15 27 24 45 31 76 31 24 0 38 4 34 10
-3 6 -25 10 -47 10 -34 0 -46 -6 -75 -36z"/>
<path d="M1176 572 c-4 -7 -15 -11 -24 -10 -9 2 -18 -5 -20 -15 -3 -16 0 -18
20 -12 30 9 41 20 36 36 -3 10 -6 10 -12 1z"/>
<path d="M679 531 c-24 -19 -21 -39 3 -27 41 21 57 34 51 39 -11 12 -30 8 -54
-12z"/>
<path d="M480 531 c0 -13 37 -24 50 -16 6 4 8 11 5 16 -8 12 -55 12 -55 0z"/>
</g>
</svg>
