<?xml version="1.0" standalone="no"?>
<!DOCTYPE svg PUBLIC "-//W3C//DTD SVG 20010904//EN"
 "http://www.w3.org/TR/2001/REC-SVG-20010904/DTD/svg10.dtd">
<svg version="1.0" xmlns="http://www.w3.org/2000/svg"
 width="193.000000pt" height="196.000000pt" viewBox="0 0 193.000000 196.000000"
 preserveAspectRatio="xMidYMid meet">

<g transform="translate(0.000000,196.000000) scale(0.100000,-0.100000)"
fill="#000000" stroke="none">
<path d="M792 1588 c-29 -29 -8 -62 49 -78 l32 -9 -20 22 c-11 12 -23 34 -27
50 -7 30 -16 33 -34 15z"/>
<path d="M970 1591 c0 -25 46 -61 102 -80 34 -11 63 -19 65 -17 10 9 -121 106
-143 106 -13 0 -24 -4 -24 -9z"/>
<path d="M478 1550 c-40 -24 -47 -142 -11 -172 14 -12 15 -11 5 9 -17 31 -15
95 4 121 9 13 25 22 42 22 40 0 106 -41 110 -68 3 -18 6 -21 17 -12 10 9 23 5
53 -14 53 -33 106 -55 172 -70 l55 -13 7 -58 c13 -98 83 -186 161 -202 15 -3
27 -8 27 -11 0 -3 -12 -25 -26 -49 -26 -44 -29 -93 -7 -100 20 -7 44 42 50
101 5 46 9 56 24 56 14 0 19 -7 19 -29 0 -67 42 -127 97 -137 l33 -6 0 -67 c0
-62 -18 -153 -35 -181 -6 -9 -12 -6 -21 11 -7 13 -13 18 -14 11 0 -7 5 -22 10
-33 8 -14 6 -36 -10 -86 -17 -54 -18 -72 -9 -94 25 -61 130 -65 180 -7 39 46
36 53 -5 12 -28 -28 -41 -34 -78 -34 -50 0 -78 21 -78 59 0 46 22 111 38 111
11 0 13 3 5 11 -7 7 -5 28 8 71 12 36 19 90 19 137 l0 76 53 19 c33 12 68 35
98 65 45 45 46 48 48 111 2 54 -2 72 -21 99 -30 44 -78 69 -155 79 l-62 9 -11
-49 c-12 -57 -25 -86 -50 -110 -16 -15 -19 -15 -24 -2 -4 10 -2 13 6 8 8 -5 9
-1 4 12 -4 10 -14 57 -22 103 -7 46 -20 94 -29 107 -20 31 -20 32 19 42 22 6
62 6 113 -1 67 -8 83 -8 108 6 30 17 29 17 -35 11 -43 -4 -90 0 -140 11 -174
37 -186 38 -227 19 -24 -12 -43 -31 -52 -51 -17 -38 -36 -41 -108 -17 -52 17
-153 74 -153 86 0 4 19 11 43 17 42 10 41 10 -14 5 -50 -4 -60 -2 -114 31 -60
36 -87 42 -117 25z m652 -119 l45 -8 -32 -8 c-17 -4 -40 -15 -51 -26 -11 -10
-22 -16 -24 -13 -3 2 -23 0 -44 -6 l-39 -10 43 5 c47 6 47 6 31 -28 -9 -19 -7
-31 6 -57 9 -17 19 -30 22 -27 2 3 -1 15 -7 27 -14 25 0 68 30 95 16 15 19 13
34 -25 19 -49 39 -167 34 -212 -3 -30 -6 -33 -38 -35 -84 -5 -158 56 -186 155
-20 68 -12 116 26 154 31 30 61 34 150 19z m286 -172 c48 -15 85 -60 91 -113
7 -60 -1 -89 -40 -132 -52 -60 -155 -97 -158 -56 -1 16 -2 16 -6 0 -6 -24 -16
-23 -52 7 -21 19 -33 41 -42 80 -7 31 -9 58 -5 63 4 4 19 -6 33 -22 37 -44
111 -47 133 -5 11 20 11 20 -14 4 -17 -11 -35 -15 -54 -10 -34 7 -79 50 -63
59 8 5 29 55 56 133 4 12 67 8 121 -8z"/>
<path d="M1281 1013 c11 -34 19 -42 19 -20 0 7 -7 22 -15 33 -13 17 -14 16 -4
-13z"/>
<path d="M1335 1019 l-30 -19 26 0 c24 0 49 16 49 32 0 12 -12 9 -45 -13z"/>
<path d="M812 1477 c21 -8 49 -22 62 -31 16 -10 27 -12 31 -6 7 12 -50 38 -98
46 -31 5 -31 4 5 -9z"/>
<path d="M364 1455 c-9 -21 -2 -26 13 -10 8 9 9 16 3 20 -6 3 -13 -1 -16 -10z"/>
<path d="M1510 1404 c0 -3 11 -19 25 -36 27 -32 35 -16 9 20 -14 20 -34 30
-34 16z"/>
<path d="M441 1363 c-1 -7 -9 -13 -18 -13 -15 0 -16 -2 -3 -10 18 -11 35 2 27
22 -4 9 -6 10 -6 1z"/>
<path d="M480 1356 c0 -2 8 -10 18 -17 15 -13 16 -12 3 4 -13 16 -21 21 -21
13z"/>
<path d="M1235 879 c-4 -6 -9 -38 -11 -72 -2 -51 -2 -55 5 -22 4 22 11 55 15
73 8 32 3 42 -9 21z"/>
<path d="M1181 823 c-1 -7 -13 -18 -28 -25 -36 -17 -36 -42 -1 -46 33 -4 52
25 39 60 -6 13 -10 18 -10 11z"/>
<path d="M1420 453 c8 -3 22 -11 30 -17 13 -10 13 -9 1 7 -7 9 -21 17 -30 16
-13 0 -14 -1 -1 -6z"/>
<path d="M1350 371 c0 -5 5 -13 10 -16 6 -3 10 -2 10 4 0 5 -4 13 -10 16 -5 3
-10 2 -10 -4z"/>
</g>
</svg>
